
<svg xmlns="http://www.w3.org/2000/svg" version="1.1" xmlns:xlink="http://www.w3.org/1999/xlink" preserveAspectRatio="none" x="0px" y="0px" width="512px" height="512px" viewBox="0 0 512 512">
<defs>
<g id="LOGO_NO_LINES_0_Layer1_0_FILL">
<path fill="#FFDB5A" stroke="none" d="
M 511.15 278.2
Q 511.95 267.5 512 257.85
L 512 257.25
Q 512 256.65 512 256 511.95 185 478.25 127.95
L 493 9.9 389.85 37.45
Q 330.55 0.3 256.05 0
L 256 0
Q 181.45 0.3 122.15 37.45
L 19 9.9 33.75 127.95
Q 0.05 185 0 256 0 256.65 0 257.2
L 0 257.85
Q 0.05 267.5 0.9 278.15 1.25 283.65 1.9 289.05 11.55 373.55 75.25 437 150.3 511.65 256 512
L 256.05 512
Q 361.7 511.65 436.75 437 500.55 373.4 510.15 288.85 510.75 283.55 511.15 278.2
M 383.8 53.55
L 387.05 55.6 473.2 32.6 460.8 131.55 462.3 134.1
Q 493.7 185.85 495.05 250.05
L 370.95 266.1 333.7 320.5 178.35 320.5 141.05 266.1 16.95 250.05
Q 18.3 185.85 49.7 134.1
L 51.25 131.55 38.85 32.6 124.95 55.6 128.25 53.55
Q 184.6 17 256 16.8
L 256.05 16.8
Q 327.4 17 383.8 53.55
M 350.8 364.15
L 391.05 306.1 492.6 293.3
Q 481.95 368.2 424.85 425.1 354.75 494.85 256 495.2 157.25 494.85 87.15 425.1 30.15 368.35 19.5 293.55
L 119.35 306.1 159.5 364.15 251.8 364.15 251.8 396.75
Q 238.2 413.05 222.75 413.5 206.35 413.5 187.6 396.2
L 184.5 393.3 178.75 399.45 181.85 402.35
Q 203.55 422.4 222.85 421.9 240.55 421.85 256 404.7 271.45 421.85 289.2 421.9 308.45 422.4 330.2 402.35
L 333.25 399.45 327.5 393.3 324.45 396.2
Q 305.65 413.5 289.3 413.5 273.8 413.05 260.2 396.75
L 260.2 364.15 350.8 364.15
M 386.25 298.2
L 346.4 355.75 163.95 355.75 124.1 298.2 18.4 284.9
Q 18 281 17.7 277
L 17.7 276.95
Q 17.3 271.85 17.15 267
L 131.4 281.75 169.4 337.3 342.65 337.3 380.65 281.75 494.9 267
Q 494.7 271.85 494.35 276.95
L 494.35 277
Q 494 280.85 493.65 284.7
L 386.25 298.2 Z"/>
</g>

<g id="LOGO_NO_LINES_0_Layer0_0_FILL">
<path fill="#FFDB5A" stroke="none" d="
M 385.7 64.6
L 379.25 60.55
Q 324.85 25.4 256.05 25.2
L 255.95 25.2
Q 187.15 25.35 132.8 60.55
L 126.35 64.6 48.75 43.95 59.95 133.35 56.95 138.45
Q 28.45 185.3 25.65 242.7
L 145.9 258.2 182.75 312.1 329.25 312.1 366.15 258.2 486.35 242.7
Q 483.55 185.3 455.05 138.45
L 452.05 133.35 463.3 43.95 385.7 64.6 Z"/>
</g>
</defs>

<g transform="matrix( 0.8749847412109375, 0, 0, 0.875, 32,32) ">
<g transform="matrix( 1, 0, 0, 1, 0,0) ">
<use xlink:href="#LOGO_NO_LINES_0_Layer1_0_FILL"/>
</g>

<g transform="matrix( 1, 0, 0, 1, 0,0) ">
<use xlink:href="#LOGO_NO_LINES_0_Layer0_0_FILL"/>
</g>
</g>
</svg>
